<?xml version="1.0" standalone="no"?>
<!DOCTYPE svg PUBLIC "-//W3C//DTD SVG 20010904//EN"
 "http://www.w3.org/TR/2001/REC-SVG-20010904/DTD/svg10.dtd">
<svg version="1.0" xmlns="http://www.w3.org/2000/svg"
 width="240.000000pt" height="49.000000pt" viewBox="0 0 240.000000 49.000000"
 preserveAspectRatio="xMidYMid meet">
<metadata>
Created by potrace 1.10, written by Peter Selinger 2001-2011
</metadata>
<g transform="translate(0.000000,49.000000) scale(0.100000,-0.100000)" stroke="none">
<path d="M1508 480 c-8 -18 -45 -207 -54 -272 -8 -58 -19 -54 -29 9 -16 114
-59 272 -71 260 -5 -4 -9 -401 -5 -444 1 -7 5 -13 11 -13 6 0 8 70 4 193 -4
137 -3 188 5 177 6 -8 11 -25 11 -37 0 -12 9 -59 20 -105 11 -46 20 -100 20
-120 0 -20 5 -40 10 -43 14 -8 24 23 45 135 31 171 32 171 34 -20 1 -107 5
-188 11 -194 7 -7 10 34 9 120 -2 179 -13 372 -21 354z"/>
<path d="M57 470 c-26 -3 -46 -9 -45 -15 1 -5 9 -9 17 -7 7 2 18 -2 22 -10 5
-7 9 -104 9 -215 0 -140 3 -204 11 -209 9 -5 10 52 4 221 l-7 228 21 -6 c12
-3 23 -1 26 3 8 13 -6 16 -58 10z"/>
<path d="M580 255 c0 -124 0 -227 0 -230 0 -3 3 -6 8 -7 4 -2 9 55 12 127 5
133 10 141 29 45 17 -88 40 -163 52 -174 15 -14 9 18 -26 149 -27 99 -27 101
-10 152 12 34 15 63 11 88 -8 39 -37 75 -61 75 -13 0 -15 -32 -15 -225z m55
146 c7 -42 -15 -111 -36 -111 -6 0 -8 7 -5 16 3 9 6 47 6 86 0 60 2 69 14 59
8 -7 17 -29 21 -50z"/>
<path d="M952 460 c-24 -38 -15 -125 20 -193 23 -45 32 -76 32 -113 0 -62 -23
-105 -54 -97 -11 3 -20 0 -20 -6 0 -17 46 -13 64 5 9 8 16 24 16 34 0 10 5 22
11 26 9 5 10 -1 5 -22 -11 -45 -34 -74 -59 -74 -16 0 -18 -3 -8 -9 24 -15 53
1 68 38 21 49 12 126 -21 195 -33 67 -42 120 -27 159 9 23 15 27 34 22 21 -7
21 -6 5 10 -20 21 -36 13 -54 -29 -15 -35 -19 -11 -4 28 6 17 17 26 30 26 12
0 18 5 15 10 -10 17 -39 11 -53 -10z"/>
<path d="M860 455 c0 -72 -12 -327 -16 -350 -8 -39 -22 -55 -40 -48 -26 10
-32 46 -35 206 -2 136 -9 194 -21 177 -9 -13 10 -357 20 -376 23 -43 61 -40
82 4 16 34 33 373 20 386 -6 6 -10 6 -10 1z"/>
<path d="M170 251 c0 -127 4 -201 10 -201 6 0 10 38 10 95 l0 95 35 0 34 0 3
-97 c2 -71 7 -98 17 -101 8 -3 11 0 8 5 -3 5 -7 70 -8 144 -4 190 -9 259 -21
259 -7 0 -8 -32 -3 -95 l7 -95 -36 0 -36 0 0 89 c0 50 -4 93 -10 96 -7 4 -10
-63 -10 -194z"/>
<path d="M348 263 c-2 -105 -2 -197 0 -207 3 -11 14 -16 42 -16 48 0 62 18 18
22 l-33 3 -3 103 -3 103 26 -7 c19 -5 25 -2 25 10 0 10 -9 16 -25 16 -24 0
-25 2 -25 70 0 39 2 70 4 70 3 0 16 -4 30 -10 21 -7 26 -6 26 5 0 8 -8 15 -17
15 -10 0 -28 3 -40 6 l-22 6 -3 -189z"/>
<path d="M1087 443 c-2 -4 -4 -93 -3 -197 1 -149 4 -190 15 -194 11 -4 12 13
6 92 l-7 96 35 0 36 0 3 -97 c2 -72 7 -98 17 -101 11 -4 13 3 8 34 -4 22 -7
114 -7 207 0 137 -3 167 -14 167 -12 0 -13 -17 -9 -95 l6 -95 -37 0 -37 0 2
90 c2 84 -2 113 -14 93z"/>
<path d="M1655 408 c-3 -24 -13 -77 -21 -118 -40 -212 -45 -243 -40 -248 11
-10 20 8 25 51 6 40 7 42 41 42 34 -1 35 -3 44 -48 5 -27 14 -46 20 -44 6 3
10 9 9 15 -2 6 -5 30 -7 54 -2 24 -9 79 -15 123 -6 44 -14 110 -17 148 -7 79
-28 93 -39 25z m44 -230 c1 -24 -3 -28 -28 -28 -17 0 -32 4 -35 8 -3 5 5 60
17 123 l22 114 11 -95 c7 -52 13 -107 13 -122z"/>
<path d="M1791 308 c3 -192 9 -268 20 -268 5 0 6 48 2 110 -7 123 7 150 27 53
27 -128 36 -157 49 -161 11 -4 12 0 6 14 -4 11 -18 61 -30 113 -21 83 -22 96
-9 127 19 45 18 118 -2 138 -8 9 -27 16 -40 16 l-25 0 2 -142z m60 90 c9 -34
-4 -96 -25 -117 -15 -14 -16 -8 -16 68 0 72 2 82 17 79 9 -2 20 -15 24 -30z"/>
<path d="M1960 382 c0 -38 -3 -130 -7 -205 -5 -114 -4 -137 8 -137 11 0 14 17
12 79 -2 77 12 161 27 161 4 0 10 -23 14 -51 8 -59 42 -157 62 -178 20 -22 28
-6 10 21 -21 32 -66 184 -66 222 0 18 15 56 35 88 19 32 30 60 25 63 -9 5 -43
-47 -76 -117 -21 -45 -32 -49 -28 -10 11 103 11 132 -2 132 -11 0 -14 -18 -14
-68z"/>
<path d="M2155 438 c-2 -7 -3 -98 -2 -203 l2 -190 43 -3 c25 -2 42 1 42 7 0 6
-13 11 -30 11 -34 0 -33 -5 -34 127 -1 77 0 83 19 80 11 -1 21 3 23 8 1 6 -9
11 -23 13 -26 3 -26 4 -21 70 3 37 5 68 5 69 1 1 12 -2 26 -7 15 -6 26 -6 30
0 6 10 -1 14 -48 24 -18 4 -29 2 -32 -6z"/>
<path d="M2283 438 c-2 -5 2 -9 9 -9 7 -1 20 -2 28 -3 12 -1 17 -33 24 -188 5
-116 12 -188 19 -188 10 0 6 117 -9 301 l-7 77 27 -5 c14 -3 26 -1 26 5 0 12
-110 21 -117 10z"/>
</g>
</svg>
